<svg xmlns="http://www.w3.org/2000/svg" xmlns:xlink="http://www.w3.org/1999/xlink" id="Layer_1" x="0" y="0" version="1.1" viewBox="0 0 20 20" xml:space="preserve" style="enable-background:new 0 0 20 20"><switch><g><path d="M15.24973,9.97966c0-0.08835-0.04078-0.17669-0.12232-0.26504l-3.88379-3.8634 c-0.07475-0.08155-0.1631-0.12232-0.26504-0.12232c-0.09514,0-0.17499,0.03398-0.23955,0.10194 c-0.06456,0.06796-0.09684,0.14951-0.09684,0.24465s0.04417,0.18689,0.13252,0.27523l2.02854,2.02854l1.30479,1.2844 l-1.52905-0.05097H5.1274c-0.10194,0-0.19028,0.03398-0.26504,0.10194c-0.07475,0.06796-0.11213,0.1631-0.11213,0.28542 c0,0.10194,0.03568,0.18858,0.10703,0.25994c0.07136,0.07135,0.1614,0.10703,0.27013,0.10703h7.45159l1.51886-0.04077 l-1.2946,1.27421L10.7747,13.6188c-0.08835,0.08835-0.13252,0.18349-0.13252,0.28542c0,0.09514,0.03228,0.17669,0.09684,0.24465 c0.06456,0.06796,0.14441,0.10194,0.23955,0.10194c0.10873,0,0.19708-0.04077,0.26504-0.12232l3.88379-3.8736 C15.20895,10.17334,15.24973,10.0816,15.24973,9.97966L15.24973,9.97966z M9.98981,20.00002 c1.37954,0,2.67244-0.26164,3.87869-0.78492c1.20625-0.52328,2.2681-1.24193,3.18553-2.15596 c0.91743-0.91403,1.63778-1.97588,2.16106-3.18553c0.52328-1.20965,0.78492-2.50085,0.78492-3.8736 c0-1.37275-0.26164-2.66225-0.78492-3.8685s-1.24363-2.2681-2.16106-3.18552c-0.91743-0.91743-1.97927-1.63778-3.18553-2.16106 s-2.49915-0.78491-3.87869-0.78491c-1.37275,0-2.66225,0.26164-3.8685,0.78491S3.85492,2.02857,2.94089,2.946 C2.02685,3.86343,1.3082,4.92527,0.78492,6.13152s-0.78491,2.49575-0.78491,3.8685s0.25994,2.66395,0.77981,3.8736 s1.23853,2.27149,2.15596,3.18553c0.91743,0.91403,1.98097,1.63269,3.19062,2.15596 C7.33606,19.73839,8.62386,20.00002,9.98981,20.00002z M9.98981,19.21511c-1.27081,0-2.46177-0.23785-3.57288-0.71356 c-1.11111-0.47571-2.08971-1.1366-2.93578-1.98267C2.63508,15.6728,1.97419,14.69251,1.49848,13.578 c-0.47571-1.11451-0.71356-2.30717-0.71356-3.57798s0.23785-2.46347,0.71356-3.57798 c0.47571-1.11451,1.1366-2.0948,1.98267-2.94088S5.30582,1.9725,6.41693,1.49339S8.719,0.77474,9.98981,0.77474 c1.27761,0,2.47197,0.23955,3.58308,0.71865C14.684,1.9725,15.6626,2.63509,16.50867,3.48116s1.50866,1.82637,1.98776,2.94088 c0.4791,1.11451,0.71865,2.30717,0.71865,3.57798s-0.23785,2.46347-0.71356,3.57798 c-0.47571,1.11451-1.1366,2.0948-1.98267,2.94087c-0.84607,0.84608-1.82637,1.50696-2.94087,1.98267 C12.46348,18.97725,11.26742,19.21511,9.98981,19.21511z"/></g></switch></svg>