<svg xmlns="http://www.w3.org/2000/svg" xmlns:xlink="http://www.w3.org/1999/xlink" id="Layer_1" x="0" y="0" version="1.1" viewBox="0 0 20 20" xml:space="preserve" style="enable-background:new 0 0 20 20"><switch><g><path d="M4.17941,10.84618h5.8104c0.10873,0,0.19708-0.03568,0.26504-0.10703c0.06796-0.07136,0.10194-0.1546,0.10194-0.24975 V2.97666c0-0.10194-0.03398-0.18518-0.10194-0.24975c-0.06796-0.06456-0.1563-0.09684-0.26504-0.09684 c-0.08834,0-0.1682,0.03228-0.23955,0.09684S9.64322,2.87472,9.64322,2.97666v7.16615h-5.4638 c-0.10873,0-0.19538,0.03398-0.25994,0.10194c-0.06456,0.06796-0.09684,0.14951-0.09684,0.24465s0.03228,0.17839,0.09684,0.24975 c0.06456,0.07136,0.15121,0.10703,0.25994,0.10703L4.17941,10.84618z M9.98981,20.00012 c1.37954,0,2.67244-0.26164,3.87869-0.78491c1.20625-0.52328,2.2681-1.24193,3.18553-2.15596 c0.91743-0.91403,1.63778-1.97588,2.16106-3.18553C19.73837,12.66407,20,11.37287,20,10.00012 c0-1.37275-0.26164-2.66225-0.78492-3.8685s-1.24363-2.2681-2.16106-3.18552c-0.91743-0.91743-1.97927-1.63778-3.18553-2.16106 s-2.49915-0.78491-3.87869-0.78491c-1.37275,0-2.66225,0.26164-3.8685,0.78491S3.85492,2.02867,2.94088,2.9461 C2.02685,3.86353,1.3082,4.92537,0.78492,6.13162S0,8.62737,0,10.00012s0.25994,2.66395,0.77981,3.8736 s1.23853,2.27149,2.15597,3.18553c0.91743,0.91403,1.98097,1.63268,3.19062,2.15596S8.62385,20.00012,9.98981,20.00012z M9.98981,19.21521c-1.27081,0-2.46177-0.23785-3.57288-0.71356c-1.11111-0.47571-2.08971-1.1366-2.93578-1.98267 s-1.50696-1.82637-1.98267-2.94087s-0.71356-2.30717-0.71356-3.57798s0.23785-2.46347,0.71356-3.57798 c0.47571-1.11451,1.1366-2.0948,1.98267-2.94088S5.30582,1.9726,6.41693,1.49349S8.719,0.77484,9.98981,0.77484 c1.27761,0,2.47197,0.23955,3.58308,0.71865c1.11111,0.47911,2.08971,1.14169,2.93578,1.98777s1.50866,1.82637,1.98776,2.94088 c0.4791,1.11451,0.71865,2.30717,0.71865,3.57798s-0.23785,2.46347-0.71356,3.57798 c-0.47571,1.11451-1.1366,2.0948-1.98267,2.94087c-0.84607,0.84607-1.82637,1.50696-2.94087,1.98267 C12.46347,18.97735,11.26742,19.2152,9.98981,19.21521z"/></g></switch></svg>